<svg width="84" height="84" viewBox="0 0 84 84" fill="none" xmlns="http://www.w3.org/2000/svg">
<g clip-path="url(#clip0_21_5)">
<path fill-rule="evenodd" clip-rule="evenodd" d="M13.3326 22.849C7.90609 28.7054 4.51059 35.3275 4.14942 42.0473C3.61748 51.9442 6.34776 58.8656 10.9643 63.7302C15.655 68.673 22.495 71.7025 30.4797 73.2746C42.4851 75.6383 56.5926 74.6134 68.5124 72.4044C75.8082 56.3146 79.1301 45.3072 79.7909 36.8559C80.5418 27.2525 77.8682 20.7844 73.1397 13.5537C69.5968 8.13609 63.8018 5.26808 56.7523 4.60917C49.6948 3.94951 41.5734 5.53712 33.7998 8.81765C26.0324 12.0955 18.7448 17.0082 13.3326 22.849ZM73.5141 71.3827C79.9907 56.6655 83.181 45.9195 83.86 37.2357C84.7216 26.2157 81.5275 18.7049 76.4625 10.9596C72.0144 4.1577 64.9281 0.894959 57.1004 0.163313C49.2807 -0.567587 40.5291 1.19444 32.3284 4.65524C24.1213 8.11869 16.3332 13.339 10.4628 19.6744C4.60683 25.9942 0.513006 33.5914 0.0725823 41.7857C-0.520984 52.8293 2.55818 61.0715 8.12936 66.9421C13.6264 72.7345 21.3525 76.0116 29.7555 77.666C41.3509 79.9489 54.6443 79.2208 66.2342 77.3206C65.7084 78.4327 65.1653 79.5672 64.6046 80.7249C64.0771 81.814 64.4575 83.1641 65.4542 83.7404C66.451 84.3168 67.6867 83.9011 68.2142 82.8121C69.2848 80.6017 70.2949 78.4685 71.2464 76.408C74.5551 75.7451 77.6647 75.001 80.4829 74.2254C81.5764 73.9244 82.2397 72.7118 81.9642 71.5169C81.6888 70.3221 80.579 69.5974 79.4854 69.8984C77.6122 70.4139 75.6124 70.9135 73.5141 71.3827Z" fill="#BA3A3A"/>
</g>
<defs>
<clipPath id="clip0_21_5">
<rect width="84" height="84" fill="white"/>
</clipPath>
</defs>
</svg>
