<svg width="186" height="172" viewBox="0 0 186 172" fill="none" xmlns="http://www.w3.org/2000/svg">
<g filter="url(#filter0_d_1_7)">
<path d="M29.8763 156L19.7597 129.292L16 128.698V117.955H40.0177V128.698L37.2968 129.292L41.576 143.376L45.8551 129.292L43.1343 128.698V117.955H67.1519V128.698L64.4311 129.292L68.7102 143.376L72.9894 129.292L70.2686 128.698V117.955H88.4735V128.698L84.7385 129.292L74.6219 156H57.0106L52.2367 141.446L47.4876 156H29.8763Z" fill="white"/>
<path d="M110.389 146.47C111.51 146.47 112.565 146.38 113.555 146.198C114.544 146 115.451 145.752 116.276 145.455C117.117 145.158 117.875 144.82 118.551 144.441C119.227 144.061 119.821 143.682 120.332 143.302H124.463V155.975H91.3922V145.233L94.5583 144.614V129.366L91.3922 128.748V117.955H124.463V130.629H120.481C119.953 130.266 119.343 129.894 118.65 129.515C117.958 129.135 117.183 128.797 116.325 128.5C115.484 128.186 114.569 127.939 113.58 127.757C112.59 127.559 111.527 127.46 110.389 127.46V134.218L117.809 132.609V141.371L110.389 139.762V146.47Z" fill="white"/>
<path d="M159.735 117.955C162.34 118.583 164.278 119.614 165.548 121.05C166.834 122.485 167.477 124.416 167.477 126.842C167.477 128.459 167.304 129.82 166.958 130.926C166.611 132.015 166.174 132.922 165.647 133.649C165.119 134.358 164.542 134.911 163.915 135.307C163.305 135.686 162.736 135.967 162.208 136.149C161.681 136.33 161.227 136.437 160.848 136.47C160.485 136.503 160.296 136.52 160.279 136.52C160.922 136.553 161.607 136.627 162.332 136.743C163.074 136.858 163.808 137.04 164.534 137.287C165.259 137.535 165.952 137.856 166.611 138.252C167.271 138.649 167.848 139.144 168.343 139.738C168.854 140.315 169.258 141.008 169.555 141.817C169.852 142.625 170 143.558 170 144.614C170 146.231 169.794 147.733 169.382 149.119C168.986 150.505 168.277 151.71 167.254 152.733C166.249 153.739 164.872 154.531 163.124 155.109C161.376 155.686 159.166 155.975 156.495 155.975H127.777V145.233L130.943 144.614V128.401L127.777 127.782V117.955H159.735ZM154.17 130.134C154.17 129.292 154.021 128.649 153.724 128.203C153.444 127.741 153.065 127.403 152.587 127.188C152.108 126.974 151.564 126.85 150.954 126.817C150.344 126.784 149.726 126.767 149.099 126.767H146.774V133.871H149.099C149.726 133.871 150.344 133.855 150.954 133.822C151.564 133.772 152.108 133.632 152.587 133.401C153.065 133.17 153.444 132.807 153.724 132.312C154.021 131.8 154.17 131.074 154.17 130.134ZM154.17 142.485C154.17 141.644 154.021 141 153.724 140.554C153.444 140.109 153.065 139.779 152.587 139.564C152.108 139.35 151.564 139.226 150.954 139.193C150.344 139.16 149.726 139.144 149.099 139.144H146.774V146.248H149.099C149.726 146.248 150.344 146.231 150.954 146.198C151.564 146.149 152.108 146.008 152.587 145.777C153.065 145.546 153.444 145.175 153.724 144.663C154.021 144.152 154.17 143.426 154.17 142.485Z" fill="white"/>
<path d="M49.9529 35.1337C49.9529 36.5528 50.1343 37.7739 50.4971 38.797C50.8598 39.8201 51.3875 40.6617 52.0801 41.3218C52.7892 41.9818 53.6466 42.4686 54.6525 42.7822C55.6749 43.0957 56.8375 43.2525 58.1402 43.2525C59.6902 43.2525 61.5206 43.0627 63.6313 42.6832C65.7421 42.3036 68.0754 41.7178 70.6313 40.9257V52.5099C67.9764 53.401 65.3875 54.0446 62.8645 54.4406C60.3581 54.8366 57.8846 55.0347 55.4441 55.0347C52.4594 55.0347 49.6643 54.6634 47.0589 53.9208C44.47 53.1782 42.2108 51.9818 40.2815 50.3317C38.3687 48.665 36.8598 46.5693 35.755 44.0446C34.6502 41.5198 34.0978 38.5495 34.0978 35.1337C34.0978 31.8003 34.6007 28.929 35.6066 26.5198C36.629 24.1106 38.0636 22.1304 39.9105 20.5792C41.7739 19.0116 44 17.8564 46.5889 17.1139C49.1943 16.3713 52.0801 16 55.2462 16C57.192 16 58.9399 16.099 60.49 16.297C62.0565 16.495 63.4664 16.7426 64.7197 17.0396C65.9729 17.3366 67.0777 17.6749 68.0342 18.0545C69.0071 18.4175 69.8728 18.7723 70.6313 19.1188V30.505H63.1861C62.3451 29.3168 61.4052 28.4422 60.3663 27.8812C59.3439 27.3201 58.2886 27.0396 57.2002 27.0396C56.2768 27.0396 55.3781 27.2211 54.5041 27.5842C53.6466 27.9472 52.8799 28.4752 52.2038 29.1683C51.5277 29.8614 50.9835 30.7112 50.5713 31.7178C50.159 32.7079 49.9529 33.8465 49.9529 35.1337Z" fill="white"/>
<path d="M106.868 16.5693C109.473 17.1964 111.411 18.2277 112.681 19.6634C113.967 21.099 114.61 23.0297 114.61 25.4554C114.61 27.0726 114.437 28.434 114.091 29.5396C113.744 30.6287 113.307 31.5363 112.78 32.2624C112.252 32.9719 111.675 33.5248 111.048 33.9208C110.438 34.3003 109.869 34.5809 109.342 34.7624C108.814 34.9439 108.36 35.0512 107.981 35.0842C107.618 35.1172 107.429 35.1337 107.412 35.1337C108.055 35.1667 108.74 35.2409 109.465 35.3564C110.207 35.4719 110.941 35.6535 111.667 35.901C112.392 36.1485 113.085 36.4703 113.744 36.8663C114.404 37.2624 114.981 37.7574 115.476 38.3515C115.987 38.929 116.391 39.6221 116.688 40.4307C116.985 41.2393 117.133 42.1716 117.133 43.2277C117.133 44.8449 116.927 46.3465 116.515 47.7327C116.119 49.1188 115.41 50.3234 114.388 51.3465C113.382 52.3531 112.005 53.1452 110.257 53.7228C108.509 54.3003 106.299 54.5891 103.628 54.5891H74.9105V43.8465L78.0766 43.2277V27.0149L74.9105 26.396V16.5693H106.868ZM101.303 28.7475C101.303 27.9059 101.154 27.2624 100.857 26.8168C100.577 26.3548 100.198 26.0165 99.7197 25.802C99.2415 25.5875 98.6973 25.4637 98.0872 25.4307C97.477 25.3977 96.8587 25.3812 96.232 25.3812H93.907V32.4851H96.232C96.8587 32.4851 97.477 32.4686 98.0872 32.4356C98.6973 32.3861 99.2415 32.2459 99.7197 32.0149C100.198 31.7838 100.577 31.4208 100.857 30.9257C101.154 30.4142 101.303 29.6881 101.303 28.7475ZM101.303 41.099C101.303 40.2574 101.154 39.6139 100.857 39.1683C100.577 38.7228 100.198 38.3927 99.7197 38.1782C99.2415 37.9637 98.6973 37.8399 98.0872 37.8069C97.477 37.7739 96.8587 37.7574 96.232 37.7574H93.907V44.8614H96.232C96.8587 44.8614 97.477 44.8449 98.0872 44.8119C98.6973 44.7624 99.2415 44.6221 99.7197 44.3911C100.198 44.1601 100.577 43.7888 100.857 43.2772C101.154 42.7657 101.303 42.0396 101.303 41.099Z" fill="white"/>
<path d="M153.444 16.5693V29.2426H149.289C149.008 28.8795 148.687 28.5083 148.324 28.1287C147.961 27.7492 147.557 27.4109 147.112 27.1139C146.667 26.8003 146.18 26.5528 145.653 26.3713C145.125 26.1733 144.556 26.0743 143.946 26.0743V43.2277L147.112 43.8465V54.5891H124.949V43.8465L128.115 43.2277V26.0743C127.505 26.0743 126.936 26.1733 126.409 26.3713C125.881 26.5528 125.395 26.8003 124.949 27.1139C124.504 27.4109 124.1 27.7492 123.737 28.1287C123.375 28.5083 123.053 28.8795 122.773 29.2426H118.617V16.5693H153.444Z" fill="white"/>
<path d="M68.061 73.863H83.6811V81.1774L81.4549 81.6044V92.1675L83.6811 92.5945V100.002H68.061V92.5945L70.2871 92.1675V81.6044L68.061 81.1774V73.863Z" fill="white"/>
<path d="M96.2032 86.2826V92.1675L98.4479 92.5759V100.002H87.28V92.5945L89.5062 92.1675V81.6044L87.28 81.1774V73.863H100.674L109.597 87.9534V81.6415L107.371 81.1774V73.863H118.52V81.1774L116.294 81.6044V92.1675L118.52 92.5945V100.002H105.126L96.2032 86.2826Z" fill="white"/>
</g>
<defs>
<filter id="filter0_d_1_7" x="0" y="0" width="186" height="172" filterUnits="userSpaceOnUse" color-interpolation-filters="sRGB">
<feFlood flood-opacity="0" result="BackgroundImageFix"/>
<feColorMatrix in="SourceAlpha" type="matrix" values="0 0 0 0 0 0 0 0 0 0 0 0 0 0 0 0 0 0 127 0" result="hardAlpha"/>
<feOffset/>
<feGaussianBlur stdDeviation="8"/>
<feComposite in2="hardAlpha" operator="out"/>
<feColorMatrix type="matrix" values="0 0 0 0 0.533333 0 0 0 0 0.608 0 0 0 0 1 0 0 0 0.65 0"/>
<feBlend mode="normal" in2="BackgroundImageFix" result="effect1_dropShadow_1_7"/>
<feBlend mode="normal" in="SourceGraphic" in2="effect1_dropShadow_1_7" result="shape"/>
</filter>
</defs>
</svg>
