<svg width="84" height="84" viewBox="0 0 84 84" fill="none" xmlns="http://www.w3.org/2000/svg">
<path fill-rule="evenodd" clip-rule="evenodd" d="M83.5644 2.89017C84.2867 3.87249 84.0905 5.26524 83.126 6.00097C70.9855 15.2624 59.8336 25.8269 48.6258 36.4442C44.0731 40.7571 39.5112 45.0787 34.87 49.3253C32.3345 51.6452 29.6432 53.9409 26.9496 56.2387C26.7807 56.3827 26.6118 56.5268 26.4429 56.6709C23.569 59.1231 20.6962 61.5853 17.9392 64.1422C12.4174 69.2631 7.47153 74.6645 4.08883 80.8577C3.50303 81.9302 2.17453 82.316 1.12152 81.7193C0.068521 81.1227 -0.310224 79.7696 0.275572 78.6971C3.99634 71.8849 9.34458 66.1021 15.0014 60.856C17.8337 58.2293 20.7713 55.7123 23.6407 53.264C23.8046 53.1242 23.9681 52.9846 24.1315 52.8453C26.8403 50.5346 29.4769 48.2854 31.9539 46.0191C36.4713 41.8857 40.9622 37.6315 45.4762 33.3555C56.7524 22.6736 68.1726 11.8554 80.5101 2.4437C81.4746 1.70797 82.842 1.90786 83.5644 2.89017Z" fill="#BA3A3A"/>
</svg>
